<svg id="visual" viewBox="0 0 618.333 286" width="618.333" height="286" xmlns="http://www.w3.org/2000/svg" xmlns:xlink="http://www.w3.org/1999/xlink" version="1.1"><rect x="0" y="0" width="618.333" height="286" fill="#001220"></rect><path d="M0 219L10.3 213C20.7 207 41.3 195 62 187.7C82.7 180.3 103.3 177.7 123.8 180.3C144.3 183 164.7 191 185.2 190.2C205.7 189.3 226.3 179.7 247 182.8C267.7 186 288.3 202 309 200.3C329.7 198.7 350.3 179.3 371 172.5C391.7 165.7 412.3 171.3 433 179C453.7 186.7 474.3 196.3 494.8 201.7C515.3 207 535.7 208 556.2 209.7C576.7 211.3 597.3 213.7 607.7 214.8L618 216L618 287L607.7 287C597.3 287 576.7 287 556.2 287C535.7 287 515.3 287 494.8 287C474.3 287 453.7 287 433 287C412.3 287 391.7 287 371 287C350.3 287 329.7 287 309 287C288.3 287 267.7 287 247 287C226.3 287 205.7 287 185.2 287C164.7 287 144.3 287 123.8 287C103.3 287 82.7 287 62 287C41.3 287 20.7 287 10.3 287L0 287Z" fill="#2a0113"></path><path d="M0 188L10.3 192.5C20.7 197 41.3 206 62 206C82.7 206 103.3 197 123.8 198.8C144.3 200.7 164.7 213.3 185.2 219.7C205.7 226 226.3 226 247 225.3C267.7 224.7 288.3 223.3 309 218.8C329.7 214.3 350.3 206.7 371 207.2C391.7 207.7 412.3 216.3 433 216.7C453.7 217 474.3 209 494.8 209.5C515.3 210 535.7 219 556.2 221.8C576.7 224.7 597.3 221.3 607.7 219.7L618 218L618 287L607.7 287C597.3 287 576.7 287 556.2 287C535.7 287 515.3 287 494.8 287C474.3 287 453.7 287 433 287C412.3 287 391.7 287 371 287C350.3 287 329.7 287 309 287C288.3 287 267.7 287 247 287C226.3 287 205.7 287 185.2 287C164.7 287 144.3 287 123.8 287C103.3 287 82.7 287 62 287C41.3 287 20.7 287 10.3 287L0 287Z" fill="#42111e"></path><path d="M0 250L10.3 250.2C20.7 250.3 41.3 250.7 62 252C82.7 253.3 103.3 255.7 123.8 255.7C144.3 255.7 164.7 253.3 185.2 252C205.7 250.7 226.3 250.3 247 249C267.7 247.7 288.3 245.3 309 241.5C329.7 237.7 350.3 232.3 371 233.2C391.7 234 412.3 241 433 242.8C453.7 244.7 474.3 241.3 494.8 238.7C515.3 236 535.7 234 556.2 231.7C576.7 229.3 597.3 226.7 607.7 225.3L618 224L618 287L607.7 287C597.3 287 576.7 287 556.2 287C535.7 287 515.3 287 494.8 287C474.3 287 453.7 287 433 287C412.3 287 391.7 287 371 287C350.3 287 329.7 287 309 287C288.3 287 267.7 287 247 287C226.3 287 205.7 287 185.2 287C164.7 287 144.3 287 123.8 287C103.3 287 82.7 287 62 287C41.3 287 20.7 287 10.3 287L0 287Z" fill="#5c2228"></path><path d="M0 248L10.3 250C20.7 252 41.3 256 62 260.2C82.7 264.3 103.3 268.7 123.8 268.2C144.3 267.7 164.7 262.3 185.2 262.2C205.7 262 226.3 267 247 269.7C267.7 272.3 288.3 272.7 309 272.2C329.7 271.7 350.3 270.3 371 270.5C391.7 270.7 412.3 272.3 433 271.8C453.7 271.3 474.3 268.7 494.8 264.7C515.3 260.7 535.7 255.3 556.2 254C576.7 252.7 597.3 255.3 607.7 256.7L618 258L618 287L607.7 287C597.3 287 576.7 287 556.2 287C535.7 287 515.3 287 494.8 287C474.3 287 453.7 287 433 287C412.3 287 391.7 287 371 287C350.3 287 329.7 287 309 287C288.3 287 267.7 287 247 287C226.3 287 205.7 287 185.2 287C164.7 287 144.3 287 123.8 287C103.3 287 82.7 287 62 287C41.3 287 20.7 287 10.3 287L0 287Z" fill="#763530"></path></svg>